<?xml version="1.0" encoding="UTF-8"?>
<svg id="Capa_2" data-name="Capa 2" xmlns="http://www.w3.org/2000/svg" viewBox="0 0 50.49 50.6">
  <defs>
    <style>
      .cls-1 {
        fill: #fff;
      }
    </style>
  </defs>
  <g id="Capa_1-2" data-name="Capa 1">
    <g>
      <path class="cls-1" d="m16.33,0c5.96,0,11.91,0,17.87,0,.19.02.39.06.58.06,1.43.02,2.86.12,4.26.41,5.57,1.13,9.24,4.34,10.8,9.86.36,1.27.49,2.58.64,3.88v21.82c-.12.96-.2,1.93-.36,2.88-.99,5.72-5.01,9.9-10.67,11.08-2.51.52-5.06.56-7.61.57-4.38.03-8.75.02-13.13,0-2.19,0-4.37-.08-6.54-.38-5.94-.82-10.29-4.82-11.59-10.66-.46-2.05-.55-4.14-.57-6.23-.04-5.2-.03-10.4,0-15.59,0-1.68.07-3.35.29-5.02.34-2.56,1.11-4.97,2.68-7.07C5.69,2.04,9.44.52,13.77.17c.85-.07,1.7-.11,2.55-.17Zm8.98,45.96c2.93.05,5.86-.05,8.79-.1,1.41-.03,2.83-.08,4.22-.37,3.65-.76,6.05-2.87,7.04-6.52.46-1.72.52-3.48.55-5.24.06-4.11.06-8.23.05-12.34,0-2.83.04-5.66-.32-8.47-.53-4.11-3.12-6.92-7.17-7.77-1.99-.42-4.02-.43-6.04-.45-4.72-.05-9.45-.05-14.17,0-1.89.02-3.78.06-5.66.37-3.91.66-6.52,3.12-7.4,6.97-.4,1.76-.44,3.56-.46,5.35-.05,5.28-.04,10.56,0,15.85.01,1.64.06,3.29.37,4.91.72,3.75,2.84,6.21,6.58,7.2,1.59.42,3.22.49,4.84.52,2.93.06,5.86.15,8.78.1Z"/>
      <path class="cls-1" d="m25.26,38.33c-7.16-.02-13.02-5.91-13.01-13.09.01-7.16,5.91-13.04,13.08-13.02,7.19.02,13.07,5.94,13.03,13.12-.04,7.17-5.93,13.01-13.11,12.99Zm.03-4.7c4.62,0,8.37-3.72,8.38-8.32,0-4.64-3.73-8.4-8.35-8.4-4.62,0-8.37,3.72-8.37,8.32,0,4.65,3.71,8.4,8.34,8.4Z"/>
      <path class="cls-1" d="m38.81,14.85c-1.73,0-3.06-1.33-3.07-3.06,0-1.72,1.39-3.13,3.09-3.11,1.67.02,3.09,1.46,3.07,3.11-.02,1.7-1.4,3.05-3.1,3.05Z"/>
    </g>
  </g>
</svg>