<?xml version="1.0" encoding="UTF-8"?>
<svg id="Capa_2" data-name="Capa 2" xmlns="http://www.w3.org/2000/svg" viewBox="0 0 50.64 50.55">
  <defs>
    <style>
      .cls-1 {
        fill: #fff;
      }
    </style>
  </defs>
  <g id="Capa_1-2" data-name="Capa 1">
    <path class="cls-1" d="m50.64,23.2v4.15c-.02.13-.05.26-.06.39-.38,3.88-1.51,7.54-3.64,10.79-5.86,8.91-14.15,12.94-24.78,11.85-5.39-.55-10.1-2.82-14.01-6.55C1.52,37.49-1.22,29.68.5,20.69,2.45,10.52,8.72,3.96,18.59.86,20.09.39,21.64.21,23.19,0,24.64,0,26.08,0,27.53,0c.8.12,1.6.19,2.38.36,10.16,2.19,16.78,8.28,19.87,18.2.47,1.51.67,3.08.85,4.65Zm-23.96.18c-.11-.49-.06-.95-.05-1.4,0-.41-.16-.55-.56-.55-1.12.01-2.24.02-3.36,0-.46,0-.6.17-.6.61.01,4.76.01,9.51,0,14.27,0,.49.19.63.65.62,1.05-.02,2.11,0,3.16,0,.67,0,.7-.03.7-.7,0-2.47,0-4.94,0-7.4,0-.7.1-1.38.39-2.02.5-1.11,1.53-1.65,2.93-1.56,1.08.07,1.84.73,2.18,1.9.14.48.2.96.19,1.46,0,2.55,0,5.1,0,7.65,0,.63.03.66.68.67,1.07,0,2.14,0,3.21,0,.8,0,.81-.01.81-.79,0-2.93,0-5.86,0-8.79,0-.61,0-1.21-.11-1.82-.39-2.18-1.5-3.77-3.71-4.34-2.35-.61-4.44-.14-6.07,1.78-.12.14-.19.31-.43.42Zm-12.53,5.74c0,2.4,0,4.8,0,7.2,0,.45.16.61.6.6,1.22-.02,2.43-.01,3.65,0,.38,0,.52-.16.52-.54,0-4.8,0-9.61,0-14.41,0-.41-.16-.55-.55-.55-1.2.01-2.4.02-3.6,0-.48,0-.62.16-.62.63.02,2.35,0,4.7,0,7.06Zm2.32-9.89c1.58.01,2.83-1.22,2.84-2.79,0-1.56-1.21-2.79-2.77-2.81-1.58-.02-2.79,1.17-2.81,2.74-.02,1.62,1.16,2.85,2.74,2.86Z"/>
  </g>
</svg>