<?xml version="1.0" encoding="UTF-8"?>
<svg id="Capa_2" data-name="Capa 2" xmlns="http://www.w3.org/2000/svg" viewBox="0 0 52.73 36.93">
  <defs>
    <style>
      .cls-1 {
        fill: #fff;
      }
    </style>
  </defs>
  <g id="Capa_1-2" data-name="Capa 1">
    <path class="cls-1" d="m26.37,36.93c-6.13,0-12.27,0-18.4,0-4.06,0-7.35-2.88-7.9-6.9-.04-.29-.06-.58-.06-.87,0-7.13,0-14.27,0-21.4C0,3.93,3.04.53,6.85.06,7.19.02,7.53,0,7.87,0c12.33,0,24.65,0,36.98,0,3.96,0,7.3,2.95,7.81,6.88.04.33.06.65.06.98,0,7.07,0,14.14,0,21.22,0,3.92-2.98,7.29-6.87,7.78-.35.04-.7.06-1.06.06-6.15,0-12.29,0-18.44,0Zm-.03-5.32c6.11,0,12.22,0,18.33,0,1.59,0,2.75-1.15,2.75-2.75,0-6.5,0-13,0-19.5,0-.38,0-.38-.35-.18-1.63.98-3.26,1.95-4.89,2.93-4.74,2.84-9.48,5.67-14.21,8.52-1.08.65-2.12.65-3.2,0-1.83-1.12-3.67-2.21-5.51-3.32-4.51-2.7-9.02-5.4-13.52-8.09-.11-.07-.22-.22-.35-.15-.13.07-.05.25-.05.37,0,6.41,0,12.83,0,19.24,0,1.83,1.09,2.92,2.91,2.92,6.04,0,12.07,0,18.11,0ZM43.06,5.34H9.68c.2.12.33.2.47.28,2.44,1.46,4.87,2.92,7.31,4.37,2.85,1.71,5.71,3.42,8.56,5.13.25.15.45.15.7,0,1.13-.69,2.28-1.36,3.42-2.05,2.69-1.61,5.38-3.22,8.06-4.83,1.6-.96,3.2-1.92,4.86-2.92Z"/>
  </g>
</svg>