<?xml version="1.0" encoding="UTF-8"?>
<svg id="Capa_2" data-name="Capa 2" xmlns="http://www.w3.org/2000/svg" viewBox="0 0 1045.66 1114.01">
  <defs>
    <style>
      .cls-1 {
        fill: #f8b133;
      }

      .cls-2 {
        fill: #5f184b;
      }
    </style>
  </defs>
  <g id="Capa_1-2" data-name="Capa 1">
    <g>
      <g>
        <path class="cls-2" d="m53.65,401.98l-2.73,12.94c-1.24,5.89-3.83,10.09-7.75,12.58-3.93,2.5-9.02,3.08-15.26,1.77-6.17-1.3-10.53-3.85-13.09-7.65-2.56-3.8-3.21-8.69-1.96-14.66l2.74-13,38.06,8.02Zm-36.65,5.92c-.48,2.26-.38,4.17.29,5.72.67,1.55,2.01,2.86,4,3.93,2,1.07,4.83,2,8.5,2.77,3.67.77,6.66,1.07,8.99.88,2.32-.18,4.11-.86,5.38-2.02,1.26-1.16,2.13-2.88,2.61-5.14l1.02-4.86-29.74-6.27-1.05,4.98Z"/>
        <path class="cls-2" d="m5.97,445.51l38.53,5.26-1.12,8.18-38.53-5.26,1.12-8.18Z"/>
        <path class="cls-2" d="m2.51,478.84c.82-1.7,1.66-2.95,2.52-3.75.86-.8,1.37-1.19,1.53-1.18l3.3,2.52c-.08,0-.48.36-1.19,1.08-.71.73-1.4,1.74-2.05,3.03-.65,1.29-1.04,2.81-1.17,4.57-.14,1.87.26,3.36,1.18,4.46.92,1.11,2.19,1.72,3.83,1.84,1.03.07,1.96-.14,2.78-.64.82-.5,1.52-1.14,2.12-1.91.6-.78,1.37-1.87,2.31-3.28,1.13-1.84,2.2-3.34,3.21-4.51,1-1.17,2.27-2.13,3.81-2.9,1.54-.77,3.38-1.07,5.53-.92,2.35.17,4.36.86,6.03,2.06s2.91,2.79,3.7,4.77c.8,1.98,1.11,4.18.93,6.61-.12,1.59-.42,3.08-.92,4.46-.5,1.38-1.03,2.54-1.6,3.48s-.87,1.41-.91,1.4l-3.99-1.25c.13-.19.44-.66.91-1.4.47-.75.95-1.7,1.44-2.87.48-1.17.77-2.37.86-3.6.11-1.51-.23-2.76-1.02-3.73-.79-.98-1.94-1.52-3.45-1.63-1.67-.12-3.04.32-4.11,1.32-1.07,1-2.29,2.57-3.64,4.71-1.22,1.91-2.31,3.43-3.27,4.56-.96,1.13-2.22,2.07-3.77,2.81-1.55.75-3.44,1.04-5.67.88-2.43-.18-4.47-.93-6.13-2.27-1.66-1.34-2.89-3.08-3.67-5.21-.78-2.14-1.08-4.48-.9-7.02.19-2.63.7-4.79,1.52-6.49Z"/>
        <path class="cls-2" d="m0,519.54l38.89-.1.06,23.33h-4.31s-.04-15.07-.04-15.07l-12.8.03.03,13.28h-4.19s-.03-13.27-.03-13.27l-13.28.03.04,15.91H.06s-.06-24.16-.06-24.16Z"/>
        <path class="cls-2" d="m.91,564.92l38.75-3.31.73,8.53-24.9,18.52v.12s2.66-.65,2.66-.65l23.61-2.02.44,5.12-38.75,3.31-.55-6.44,27.52-20.9v-.12s-3.43.77-3.43.77l-25.63,2.19-.44-5.13Zm45.14,13.89c.18-.71.48-1.63.91-2.75.37-.87.64-1.64.83-2.29.18-.66.25-1.34.18-2.06-.05-.63-.3-1.2-.74-1.68-.44-.48-.89-.84-1.35-1.08-.46-.24-.75-.4-.88-.47l1.96-2.33c.16-.01.72.24,1.69.76.96.52,1.89,1.29,2.78,2.31s1.4,2.29,1.53,3.8c.09,1.07.03,2.01-.18,2.81-.21.8-.54,1.7-.97,2.7-.33.87-.57,1.57-.72,2.1-.16.53-.21,1.1-.16,1.69.05.64.24,1.16.55,1.57.31.41.64.72.98.91s.55.3.63.34l-1.9,2.32c-.16.01-.66-.18-1.49-.59-.84-.41-1.64-1.08-2.42-2.01s-1.24-2.16-1.36-3.67c-.07-.88-.02-1.67.16-2.39Z"/>
        <path class="cls-2" d="m11.48,619.06c2.98-3.63,7.53-5.99,13.66-7.08,6.13-1.09,11.22-.45,15.29,1.92,4.07,2.37,6.6,6.33,7.59,11.86.99,5.58-.01,10.2-3.02,13.88-3.01,3.68-7.56,6.06-13.65,7.14-6.09,1.09-11.17.42-15.25-1.99-4.08-2.41-6.61-6.41-7.61-11.98-.99-5.54,0-10.12,2.99-13.75Zm6.04,18.86c2.69.88,6.76.83,12.22-.15,5.42-.96,9.25-2.34,11.48-4.11,2.24-1.78,3.09-4.16,2.56-7.14-.53-2.95-2.14-4.86-4.85-5.73-2.71-.88-6.77-.83-12.19.14-5.46.97-9.3,2.33-11.52,4.06-2.22,1.73-3.07,4.09-2.54,7.08.54,3.02,2.15,4.97,4.84,5.85Z"/>
        <path class="cls-2" d="m27.09,698.05c1.28-2.69,3.57-4.57,6.87-5.65,2.42-.79,4.62-.74,6.57.17,1.96.91,3.64,2.31,5.06,4.2.66-3.87,2.91-6.43,6.73-7.69,3.03-1,5.75-.79,8.14.63,2.4,1.42,4.13,3.76,5.2,7.02.37,1.14.61,2.31.71,3.51s.13,2.23.1,3.09c-.04.85-.06,1.38-.07,1.6l-3.9.59c.03-.18.08-.6.15-1.28.07-.67.1-1.45.09-2.33s-.14-1.68-.38-2.39c-.51-1.55-1.38-2.56-2.62-3.01-1.24-.45-3-.31-5.27.44-4.02,1.32-5.76,3.04-5.23,5.18l2.09,6.37,8.55,1.29.97,2.96-7.33,2.41,2.07,6.31-3.75,1.23-2.07-6.31-7.85,2.57c-1.78.59-3.08,1.11-3.89,1.59-.81.48-1.29.99-1.45,1.54-.15.55-.09,1.25.18,2.08.25.76.6,1.44,1.05,2.05.45.61.7.9.73.89l-3.22,1.31s-.24-.15-.6-.49c-.37-.34-.79-.9-1.28-1.69-.49-.79-.94-1.82-1.37-3.11-1.02-3.11-.8-5.57.66-7.39-2.52-1.4-4.34-3.82-5.47-7.27-1.39-4.24-1.45-7.71-.17-10.4Zm6.31,13.58c.8.77,1.62,1.3,2.48,1.61.82-.44,1.9-.87,3.22-1.31l8.3-2.72-2.09-6.37c-.49-1.35-1.44-2.29-2.87-2.8-1.43-.52-3.34-.38-5.73.4-2.58.85-4.25,1.88-5.03,3.1-.78,1.22-.82,2.87-.14,4.96.44,1.33,1.05,2.37,1.85,3.14Z"/>
        <path class="cls-2" d="m58.31,773.59c1.83-4.31,5.51-7.8,11.03-10.49,3.66-1.78,7.17-2.71,10.55-2.8,3.37-.09,6.4.7,9.07,2.37,2.68,1.67,4.82,4.15,6.42,7.45.8,1.65,1.39,3.37,1.75,5.17.36,1.79.59,3.39.67,4.8.08,1.4.11,2.11.07,2.13l-4.29,1.16c.02-.32,0-1.07-.06-2.24-.06-1.17-.22-2.52-.48-4.06s-.68-2.9-1.25-4.08c-.98-2.01-2.22-3.42-3.73-4.24-1.51-.82-3.44-1.05-5.79-.68-2.35.37-5.25,1.39-8.69,3.07-5.06,2.46-8.3,4.95-9.74,7.47-1.44,2.52-1.4,5.32.1,8.4.84,1.72,1.94,3.06,3.32,4.01,1.37.95,2.69,1.62,3.97,2,1.27.38,1.96.54,2.07.49l-1.43,3.62c-.18.09-1.06-.07-2.63-.48s-3.28-1.3-5.12-2.66c-1.84-1.37-3.41-3.38-4.7-6.03-2.57-5.27-2.93-10.06-1.11-14.37Z"/>
        <path class="cls-2" d="m80.4,816.37c1.49-4.45,4.9-8.28,10.24-11.49,5.33-3.2,10.33-4.42,14.97-3.65s8.42,3.56,11.32,8.38c2.92,4.85,3.62,9.54,2.12,14.04-1.5,4.51-4.91,8.36-10.2,11.54-5.3,3.18-10.29,4.37-14.95,3.57-4.67-.8-8.46-3.63-11.38-8.48-2.9-4.82-3.6-9.46-2.11-13.91Zm12.36,15.47c2.82-.14,6.61-1.63,11.37-4.49,4.72-2.83,7.81-5.48,9.26-7.94,1.46-2.46,1.4-4.98-.16-7.58-1.54-2.56-3.73-3.77-6.57-3.62-2.84.15-6.62,1.64-11.34,4.47-4.75,2.86-7.86,5.49-9.32,7.9-1.46,2.41-1.41,4.92.15,7.52,1.58,2.63,3.78,3.88,6.61,3.74Z"/>
        <path class="cls-2" d="m103.97,862.93l31.4-22.95,5.99,7.99-16.4,25.91.14.19,29.35-8.62,5.56,7.42-30.87,23.66-4.84-6.46,23.3-17.99-.11-.14-30.05,8.99-3.7-4.93,17.06-26.32-.11-.14-23.66,17.51-3.09-4.12Z"/>
        <path class="cls-2" d="m149.02,914.59c.28-3.53,2.13-6.88,5.57-10.03l18.24-16.75,5.62,6.13-16.88,15.5c-3.17,2.91-5.05,5.44-5.64,7.57-.59,2.14-.03,4.13,1.67,5.98,1.81,1.97,3.86,2.76,6.17,2.38,2.3-.38,4.98-1.97,8.04-4.78l16.88-15.5,3.44,3.75-18.25,16.75c-3.47,3.18-6.9,4.82-10.31,4.92-3.41.09-6.81-1.71-10.21-5.41-3.19-3.47-4.64-6.96-4.36-10.5Z"/>
        <path class="cls-2" d="m179.7,951.32l26.21-28.73,6.32,5.77-5.72,30.5.09.08,1.51-2.27,15.97-17.5,3.8,3.47-26.21,28.73-4.77-4.35,6.02-34.03-.09-.08-1.99,2.88-17.34,19.01-3.8-3.47Z"/>
        <path class="cls-2" d="m219.4,985.91l24.1-30.53,6.48,5.12-24.1,30.53-6.48-5.12Z"/>
        <path class="cls-2" d="m248.55,1002.22c-.54-4.65.93-9.51,4.4-14.57,2.3-3.36,4.89-5.91,7.78-7.65,2.89-1.74,5.91-2.55,9.06-2.42,3.15.13,6.24,1.23,9.27,3.3,1.51,1.04,2.87,2.25,4.08,3.63,1.2,1.38,2.19,2.66,2.96,3.84.76,1.18,1.14,1.78,1.11,1.82l-3.16,3.13c-.14-.29-.53-.93-1.15-1.91-.63-.99-1.44-2.08-2.42-3.29-.99-1.21-2.02-2.18-3.11-2.93-1.84-1.26-3.62-1.88-5.34-1.84-1.72.03-3.5.79-5.37,2.27-1.86,1.48-3.87,3.8-6.04,6.96-3.18,4.64-4.77,8.41-4.77,11.31,0,2.9,1.41,5.31,4.24,7.26,1.58,1.08,3.2,1.7,4.86,1.85,1.66.15,3.14.07,4.43-.23s1.97-.5,2.04-.6l.55,3.86c-.11.17-.96.46-2.53.88-1.57.42-3.49.5-5.77.22-2.27-.28-4.63-1.25-7.07-2.92-4.84-3.31-7.53-7.3-8.06-11.94Z"/>
        <path class="cls-2" d="m281.69,1029.77l30.44-27.44,7.96,4.52-8.68,39.79-7.6-4.31,2.46-11.12-11.76-6.67-8.44,7.73-4.37-2.48Zm15.72-7.93l9.73,5.52,4.41-18.55-.1-.06-14.03,13.09Z"/>
        <path class="cls-2" d="m331.29,1051.36c-1.3-4.5-.66-9.53,1.93-15.1,1.71-3.69,3.85-6.63,6.41-8.83,2.56-2.2,5.4-3.49,8.53-3.89,3.13-.39,6.36.18,9.69,1.73,1.66.77,3.2,1.74,4.62,2.9,1.42,1.16,2.6,2.26,3.55,3.3.95,1.03,1.42,1.57,1.4,1.61l-2.6,3.61c-.19-.26-.67-.83-1.45-1.7-.79-.87-1.76-1.82-2.93-2.85-1.17-1.03-2.36-1.82-3.55-2.37-2.03-.94-3.88-1.25-5.57-.94-1.69.32-3.33,1.36-4.92,3.13-1.59,1.77-3.19,4.39-4.8,7.86-2.37,5.1-3.31,9.08-2.84,11.94.48,2.86,2.27,5.01,5.38,6.46,1.74.81,3.44,1.14,5.1,1.02,1.67-.13,3.11-.45,4.34-.96,1.23-.51,1.86-.82,1.91-.93l1.18,3.71c-.08.18-.87.61-2.34,1.29-1.48.68-3.36,1.07-5.66,1.17-2.29.1-4.77-.47-7.45-1.71-5.32-2.47-8.63-5.95-9.93-10.45Z"/>
        <path class="cls-2" d="m371.45,1073.93l13.93-36.31,7.71,2.96-13.93,36.31-7.71-2.96Z"/>
        <path class="cls-2" d="m404.23,1080.86c-1.89-4.3-1.93-9.43-.13-15.38,1.8-5.96,4.68-10.21,8.64-12.77,3.96-2.55,8.63-3.02,14.02-1.39,5.42,1.64,9.09,4.63,11.01,8.98,1.91,4.35,1.98,9.48.19,15.4-1.79,5.92-4.68,10.15-8.68,12.69-4,2.54-8.71,2.99-14.13,1.36-5.38-1.63-9.02-4.59-10.91-8.89Zm19.55,3.16c2-2,3.8-5.65,5.41-10.96,1.59-5.27,2.1-9.3,1.53-12.1-.57-2.8-2.31-4.63-5.21-5.51-2.86-.86-5.3-.29-7.3,1.73-2.01,2.02-3.8,5.66-5.4,10.93-1.6,5.31-2.14,9.35-1.6,12.11.54,2.77,2.26,4.59,5.16,5.47,2.94.89,5.41.33,7.41-1.67Zm4.36-35.03l-3.11-1.5,6.64-7.49,5.65,3.64-9.18,5.35Z"/>
        <path class="cls-2" d="m452.74,1099.27l7.77-38.11,8.38,1.71,10.73,29.12.12.02.13-2.72,4.73-23.21,5.04,1.03-7.77,38.11-6.33-1.29-12.28-32.3-.12-.02-.22,3.5-5.14,25.21-5.04-1.03Z"/>
        <path class="cls-2" d="m540.79,1112.42l-9.1-39.57,8.72.57,7.05,33.38h.18s12.12-32.11,12.12-32.11l5.19.34-15.02,37.99-9.13-.6Z"/>
        <path class="cls-2" d="m581.23,1114.01l-.07-38.89,8.26-.02.07,38.89h-8.26Z"/>
        <path class="cls-2" d="m614.6,1112.9c-1.8-.58-3.15-1.25-4.05-1.99-.91-.74-1.37-1.19-1.38-1.35l2.05-3.61c0,.08.42.42,1.23,1.03.82.61,1.91,1.15,3.28,1.62,1.37.47,2.93.65,4.68.54,1.87-.12,3.29-.71,4.26-1.77.97-1.06,1.41-2.41,1.3-4.04-.07-1.04-.4-1.92-1.01-2.66-.61-.74-1.34-1.35-2.19-1.84s-2.04-1.1-3.57-1.84c-1.97-.87-3.61-1.73-4.9-2.57-1.29-.84-2.42-1.96-3.39-3.38-.97-1.42-1.52-3.2-1.66-5.35-.15-2.35.26-4.43,1.22-6.25.96-1.82,2.37-3.26,4.22-4.32,1.85-1.06,3.99-1.66,6.42-1.82,1.59-.1,3.11,0,4.55.31,1.44.31,2.66.68,3.67,1.12,1.01.44,1.51.67,1.51.71l-.7,4.12c-.21-.11-.71-.34-1.51-.71-.8-.37-1.81-.71-3.03-1.04-1.22-.32-2.45-.44-3.68-.36-1.51.1-2.7.6-3.56,1.52-.86.91-1.24,2.13-1.15,3.64.11,1.67.73,2.97,1.87,3.9,1.14.93,2.86,1.92,5.17,2.97,2.06.95,3.71,1.82,4.96,2.62,1.25.8,2.35,1.92,3.3,3.36.95,1.44,1.5,3.27,1.64,5.5.15,2.43-.32,4.56-1.42,6.38-1.1,1.83-2.66,3.28-4.67,4.35s-4.29,1.68-6.84,1.84c-2.63.17-4.84-.04-6.63-.62Z"/>
        <path class="cls-2" d="m658.01,1106.27c-2.76-2.22-4.47-5.64-5.14-10.26l-3.54-24.52,8.23-1.19,3.28,22.68c.62,4.26,1.64,7.24,3.08,8.93,1.43,1.69,3.39,2.35,5.88,1.99,2.64-.38,4.46-1.63,5.44-3.75.98-2.12,1.18-5.23.58-9.33l-3.28-22.68,5.03-.73,3.55,24.52c.67,4.66.09,8.42-1.75,11.29-1.84,2.87-5.25,4.66-10.22,5.38-4.66.67-8.37-.1-11.13-2.32Z"/>
        <path class="cls-2" d="m702.2,1102.42l3.7-40.81,8.91-2.09,20.65,35.1-8.51,1.99-5.75-9.83-13.16,3.09-.95,11.41-4.89,1.15Zm6.15-16.5l10.89-2.56-9.37-16.61-.12.03-1.41,19.14Z"/>
        <path class="cls-2" d="m754.29,1089.09l-11.88-37.03,7.86-2.52,10.57,32.93,14.36-4.61,1.32,4.1-22.22,7.13Z"/>
      </g>
      <g>
        <path class="cls-1" d="m830.35,261.96c0,59.03-9.77,130.98-28.14,205.84-.03-.07-.1-.16-.16-.23-26.64-34.45-75.93-51.91-146.38-51.91-3.37,0-6.8.03-10.3.13,20.27-76.98,32.62-153.6,32.62-235.58,0-30.66-1.86-109.6-32.49-109.6-62.96,0-129.71,115.42-184.88,245.88-59.59,140.92-131.08,276.41-209.76,407.65-2.09,3.5-4.18,7.06-6.24,10.66-32.79-20.5-55.24-61.88-55.24-127.26,0-146.77,85.45-330.71,85.45-476.56,0-8.37-1.86-42.72-9.28-42.72-9.28,0-42.72,12.06-71.52,56.65-46.45,82.7-17.65,136.57-59.46,136.57-23.24,0-43.67-14.87-43.67-51.09,0-106.83,76.2-216.46,180.21-216.46,63.19,0,154.22,50.18,154.22,173.74v6.5C470.84,104.96,541.45,0,642.68,0c94.76,0,187.66,87.31,187.66,261.96Z"/>
        <path class="cls-1" d="m1029.84,867.19c0,52.01,7.45,87.31,7.45,115.19,0,31.58-25.07,48.31-52.04,48.31-93.81,0-109.6-97.54-109.6-191.39,0-50.14,7.42-137.49,24.16-222.93-53.9,82.67-155.14,377.16-155.14,377.16-9.31,10.23-24.16,13.93-38.11,13.93-70.74,0-97.51-63.48-106.86-136.31-3.56-27.59-4.61-56.52-4.61-83.85,0-13.93.1-29.98.52-47.3v-.03c-.59-4.48-.75-9.94-.42-16.47,6.15-129.22-3.6-142.88-3.6-142.88-8.92,3.99-17.52,8.07-25.82,12.19l-26.58,14.09c-127.68,71.52-172.4,159.29-172.4,223.62,0,21.38,1.86,32.52,12.06,32.52,27.03,0,101.33-66.13,167.56-187.07-.07,17.75-.62,40.21-1.96,68.58-.36,7.06-.23,13.3.36,18.93-.33,14.19-.49,28.9-.49,46.12,0,33.54,1.57,62.08,4.84,87.18.62,4.97,1.34,9.81,2.09,14.51-38.83,26.51-80.97,41.84-125.95,41.84-78.98,0-159.78-49.23-159.78-127.26,0-20.43,5.56-49.23,16.74-77.11l64.07-100.32,22.85-23.54c45.47-43.51,100.25-77.31,159.09-102.74v-.2l29.78-11.9c21.67-8.17,43.8-15.3,66.06-21.41,11.54-.92,22.2-1.37,32-1.37,3.43,0,6.73.07,9.94.16,5.16.16,10.04.46,14.68.85h.03c6.96.62,13.37,1.5,19.29,2.58.03,0,.03.03.03.03,5.92,1.08,11.31,2.42,16.25,3.92,7.65,2.32,14.15,5.1,19.74,8.17,2.65,1.47,5.1,2.97,7.35,4.58l.03.03c2.22,1.57,4.25,3.2,6.11,4.84,0,.03.03.07.07.07,1.83,1.67,3.5,3.37,5,5.1.59.65,1.11,1.31,1.63,1.96,1.41,1.73,2.65,3.53,3.73,5.3,1.11,1.8,2.06,3.56,2.88,5.33h.03c.82,1.77,1.5,3.5,2.13,5.23v.03c1.67,4.87,2.48,9.51,2.84,13.6.72,8.99-.91,15.27-.91,15.27,0,0-1.34,11.64-3.3,29.75-4.28,40.21-11.51,112.38-13.43,159.78,39.95-105.91,91.04-236.89,174.65-236.89,70.61,0,120.78,51.09,120.78,142.13,0,56.65-15.82,118.92-15.82,208.09Z"/>
      </g>
      <path class="cls-1" d="m960.53,444.28h0c0-46.09-37.36-83.45-83.45-83.45h0c46.09,0,83.45-37.36,83.45-83.45h0c0,46.09,37.36,83.45,83.45,83.45h0c-46.09,0-83.45,37.36-83.45,83.45Z"/>
    </g>
  </g>
</svg>