<?xml version="1.0" encoding="UTF-8"?>
<svg id="Capa_2" data-name="Capa 2" xmlns="http://www.w3.org/2000/svg" viewBox="0 0 542.84 578.35">
  <defs>
    <style>
      .cls-1 {
        fill: #fff;
      }

      .cls-2 {
        fill: #f8b133;
      }
    </style>
  </defs>
  <g id="Capa_1-2" data-name="Capa 1">
    <g>
      <g>
        <path class="cls-2" d="m27.92,208.41l-1.42,6.72c-.65,3.06-1.99,5.23-4.03,6.53-2.04,1.29-4.68,1.6-7.92.91-3.2-.68-5.47-2-6.79-3.98-1.33-1.98-1.67-4.51-1.01-7.61l1.43-6.75,19.75,4.18Zm-19.03,3.05c-.25,1.17-.2,2.16.15,2.97.35.8,1.04,1.49,2.08,2.04s2.51,1.04,4.41,1.44c1.9.4,3.46.56,4.66.46,1.2-.09,2.14-.44,2.79-1.04.66-.6,1.11-1.49,1.36-2.67l.53-2.52-15.44-3.27-.55,2.58Z"/>
        <path class="cls-2" d="m3.14,231l20,2.75-.58,4.25-20-2.75.58-4.25Z"/>
        <path class="cls-2" d="m1.32,248.34c.43-.88.87-1.53,1.31-1.94s.71-.62.79-.61l1.71,1.31s-.25.18-.62.56c-.37.38-.73.9-1.07,1.57-.34.67-.54,1.46-.61,2.37-.07.97.13,1.74.61,2.32.48.57,1.14.89,1.99.96.54.04,1.02-.07,1.44-.33.42-.26.79-.59,1.1-.99.31-.4.71-.97,1.2-1.7.59-.95,1.14-1.73,1.67-2.34.52-.61,1.18-1.11,1.98-1.51.8-.4,1.75-.56,2.87-.47,1.22.09,2.26.45,3.13,1.07.87.62,1.51,1.45,1.92,2.48.41,1.03.57,2.17.48,3.43-.06.83-.22,1.6-.48,2.32s-.54,1.32-.83,1.81c-.29.49-.45.73-.47.73l-2.07-.65c.07-.1.23-.34.47-.73s.5-.88.75-1.49c.25-.6.4-1.23.45-1.87.06-.79-.12-1.43-.53-1.94-.41-.51-1.01-.79-1.79-.85-.87-.06-1.58.16-2.14.68-.56.52-1.19,1.33-1.89,2.45-.63.99-1.2,1.78-1.7,2.37-.5.59-1.15,1.07-1.96,1.46-.81.39-1.79.54-2.95.45-1.26-.09-2.32-.49-3.18-1.18-.86-.7-1.5-1.6-1.9-2.71-.41-1.11-.56-2.33-.46-3.65.1-1.36.36-2.49.79-3.37Z"/>
        <path class="cls-2" d="m0,269.48l20.19-.03.02,12.11h-2.24s-.01-7.82-.01-7.82h-6.65s.01,6.91.01,6.91h-2.17s-.01-6.89-.01-6.89H2.24s.01,8.27.01,8.27H.02s-.02-12.55-.02-12.55Z"/>
        <path class="cls-2" d="m.46,293.04l20.12-1.7.37,4.43-12.93,9.61v.06s1.38-.33,1.38-.33l12.26-1.04.23,2.66-20.12,1.7-.28-3.34,14.29-10.84v-.06s-1.78.4-1.78.4l-13.31,1.13-.22-2.66Zm23.43,7.23c.09-.37.25-.85.47-1.43.19-.45.33-.85.43-1.19.1-.34.13-.7.1-1.07-.03-.33-.16-.62-.38-.87-.23-.25-.46-.44-.7-.56-.24-.12-.39-.21-.46-.24l1.02-1.21c.08,0,.37.12.87.39.5.27.98.67,1.44,1.2.46.53.72,1.19.79,1.97.05.56.01,1.04-.1,1.46-.11.41-.28.88-.5,1.4-.17.45-.29.81-.38,1.09-.08.28-.11.57-.08.88.03.33.12.6.29.82.16.21.33.37.51.47s.28.16.33.17l-.99,1.21c-.08,0-.34-.1-.77-.31-.43-.21-.85-.56-1.26-1.05-.41-.49-.64-1.12-.71-1.9-.04-.45-.01-.87.08-1.24Z"/>
        <path class="cls-2" d="m5.92,321.19c1.55-1.88,3.91-3.11,7.09-3.67,3.18-.57,5.83-.23,7.94,1,2.11,1.23,3.42,3.29,3.93,6.16.51,2.9,0,5.3-1.58,7.21-1.56,1.91-3.93,3.14-7.09,3.7-3.16.56-5.8.21-7.91-1.04-2.12-1.25-3.43-3.33-3.94-6.22-.51-2.88,0-5.25,1.56-7.14Zm3.13,9.79c1.4.46,3.51.43,6.34-.07,2.81-.5,4.8-1.21,5.96-2.13,1.16-.92,1.6-2.16,1.33-3.71-.27-1.53-1.11-2.52-2.52-2.98-1.41-.46-3.52-.43-6.33.07-2.83.5-4.83,1.21-5.98,2.1-1.15.9-1.59,2.12-1.32,3.67.28,1.57,1.12,2.58,2.51,3.04Z"/>
        <path class="cls-2" d="m14.01,362.25c.67-1.39,1.85-2.37,3.57-2.93,1.26-.41,2.4-.38,3.41.09,1.02.47,1.89,1.2,2.63,2.18.34-2.01,1.51-3.34,3.5-3.99,1.57-.52,2.98-.41,4.23.33,1.24.74,2.14,1.95,2.7,3.64.19.59.32,1.2.37,1.82.05.62.07,1.16.05,1.6-.02.44-.03.72-.04.83l-2.03.3c.01-.09.04-.31.08-.66.04-.35.05-.75.05-1.21,0-.46-.07-.87-.2-1.24-.26-.81-.72-1.33-1.36-1.56-.64-.24-1.56-.16-2.74.23-2.08.68-2.99,1.58-2.71,2.69l1.08,3.31,4.44.67.5,1.53-3.81,1.25,1.07,3.28-1.95.64-1.07-3.28-4.07,1.33c-.92.3-1.6.58-2.02.82s-.67.51-.75.8c-.08.29-.05.65.09,1.08.13.39.31.75.54,1.06.23.32.36.47.38.46l-1.67.68s-.12-.08-.31-.26c-.19-.18-.41-.47-.66-.88-.25-.41-.49-.95-.71-1.61-.53-1.61-.42-2.89.34-3.84-1.31-.73-2.25-1.99-2.84-3.78-.72-2.2-.75-4-.09-5.4Zm3.27,7.05c.41.4.84.68,1.29.84.43-.23.99-.45,1.67-.68l4.31-1.41-1.08-3.31c-.25-.7-.75-1.19-1.49-1.46-.74-.27-1.73-.2-2.97.21-1.34.44-2.21.97-2.61,1.61-.4.63-.43,1.49-.07,2.57.23.69.54,1.23.96,1.63Z"/>
        <path class="cls-2" d="m30.22,401.51c.95-2.24,2.86-4.05,5.73-5.45,1.9-.92,3.72-1.41,5.47-1.46,1.75-.04,3.32.37,4.71,1.23,1.39.87,2.5,2.16,3.33,3.87.42.86.72,1.75.91,2.68s.3,1.76.35,2.49.05,1.1.04,1.11l-2.23.6c.01-.17,0-.55-.03-1.16s-.11-1.31-.25-2.11c-.14-.8-.35-1.5-.65-2.12-.51-1.04-1.15-1.78-1.93-2.2-.78-.43-1.78-.54-3-.35-1.22.19-2.72.72-4.51,1.59-2.62,1.28-4.31,2.57-5.06,3.88-.75,1.31-.73,2.76.05,4.36.43.89,1.01,1.59,1.72,2.08.71.49,1.4.84,2.06,1.04.66.2,1.02.28,1.07.25l-.74,1.88c-.09.05-.55-.04-1.37-.25-.82-.21-1.7-.67-2.66-1.38-.95-.71-1.77-1.75-2.44-3.13-1.33-2.74-1.52-5.22-.57-7.46Z"/>
        <path class="cls-2" d="m41.69,423.74c.77-2.31,2.55-4.3,5.32-5.96,2.77-1.66,5.36-2.29,7.77-1.9,2.41.4,4.37,1.85,5.87,4.35,1.51,2.52,1.88,4.95,1.1,7.29-.78,2.34-2.55,4.34-5.3,5.99-2.75,1.65-5.34,2.27-7.76,1.85-2.42-.42-4.39-1.89-5.91-4.41-1.5-2.5-1.87-4.91-1.09-7.22Zm6.42,8.03c1.47-.07,3.43-.85,5.9-2.33,2.45-1.47,4.05-2.84,4.81-4.12.76-1.28.73-2.59-.08-3.94-.8-1.33-1.94-1.96-3.41-1.88-1.48.08-3.44.85-5.89,2.32-2.47,1.48-4.08,2.85-4.84,4.1s-.73,2.55.08,3.9c.82,1.37,1.96,2.02,3.43,1.94Z"/>
        <path class="cls-2" d="m53.95,447.96l16.31-11.91,3.11,4.15-8.51,13.45.07.1,15.24-4.47,2.89,3.85-16.03,12.28-2.51-3.36,12.1-9.34-.06-.08-15.6,4.67-1.92-2.56,8.86-13.66-.06-.08-12.29,9.09-1.6-2.14Z"/>
        <path class="cls-2" d="m77.34,474.79c.14-1.83,1.11-3.57,2.89-5.21l9.47-8.7,2.92,3.18-8.76,8.04c-1.65,1.51-2.62,2.82-2.93,3.93-.3,1.11-.01,2.14.87,3.1.94,1.02,2,1.43,3.2,1.24,1.2-.2,2.59-1.02,4.17-2.48l8.76-8.04,1.79,1.94-9.47,8.7c-1.8,1.65-3.58,2.5-5.35,2.55s-3.54-.89-5.3-2.81c-1.65-1.8-2.41-3.62-2.26-5.45Z"/>
        <path class="cls-2" d="m93.29,493.88l13.61-14.92,3.28,2.99-2.97,15.83.05.04.78-1.18,8.29-9.09,1.97,1.8-13.61,14.92-2.48-2.26,3.12-17.67-.05-.04-1.03,1.5-9,9.87-1.97-1.8Z"/>
        <path class="cls-2" d="m113.91,511.85l12.51-15.85,3.37,2.66-12.51,15.85-3.36-2.65Z"/>
        <path class="cls-2" d="m129.09,520.35c-.28-2.41.48-4.93,2.28-7.57,1.19-1.74,2.54-3.07,4.04-3.97,1.5-.91,3.07-1.33,4.7-1.26,1.64.07,3.24.64,4.81,1.71.79.54,1.49,1.17,2.12,1.88.63.72,1.14,1.38,1.53,1.99.4.61.59.92.58.94l-1.64,1.62c-.07-.15-.27-.48-.6-.99-.33-.51-.75-1.08-1.26-1.71-.51-.63-1.05-1.13-1.61-1.52-.96-.65-1.88-.97-2.77-.96-.89.02-1.82.41-2.79,1.18-.97.77-2.01,1.97-3.13,3.61-1.65,2.41-2.48,4.37-2.48,5.87,0,1.5.73,2.76,2.2,3.77.82.56,1.66.88,2.53.96.86.08,1.63.04,2.3-.12.67-.16,1.02-.26,1.06-.31l.29,2c-.06.09-.5.24-1.31.46-.82.22-1.82.26-3,.11s-2.41-.65-3.67-1.51c-2.51-1.72-3.91-3.79-4.19-6.2Z"/>
        <path class="cls-2" d="m146.31,534.66l15.8-14.25,4.13,2.34-4.5,20.66-3.94-2.24,1.28-5.78-6.11-3.46-4.38,4.01-2.27-1.29Zm8.16-4.12l5.05,2.87,2.28-9.63-.05-.03-7.28,6.8Z"/>
        <path class="cls-2" d="m172.07,545.86c-.68-2.33-.34-4.95,1-7.84.89-1.92,2-3.45,3.33-4.59s2.81-1.81,4.43-2.02c1.62-.21,3.3.09,5.03.89.86.4,1.66.9,2.4,1.51s1.35,1.17,1.84,1.71c.49.54.74.81.73.83l-1.35,1.87c-.1-.13-.35-.43-.75-.88-.41-.45-.92-.94-1.52-1.48-.61-.53-1.22-.94-1.84-1.23-1.05-.49-2.02-.65-2.89-.48-.88.16-1.73.71-2.55,1.62-.82.92-1.66,2.28-2.49,4.08-1.23,2.65-1.72,4.71-1.47,6.2.25,1.48,1.18,2.6,2.79,3.35.9.42,1.78.59,2.65.53.86-.07,1.62-.23,2.25-.5s.97-.42.99-.48l.61,1.93c-.04.09-.45.32-1.22.67-.77.35-1.75.55-2.94.61-1.19.05-2.48-.24-3.87-.89-2.76-1.28-4.48-3.09-5.15-5.42Z"/>
        <path class="cls-2" d="m192.95,557.58l7.22-18.85,4,1.53-7.23,18.85-4-1.53Z"/>
        <path class="cls-2" d="m209.98,561.18c-.98-2.23-1-4.89-.07-7.99.93-3.09,2.43-5.3,4.48-6.63,2.05-1.33,4.48-1.57,7.28-.73,2.81.85,4.72,2.4,5.71,4.66,1,2.26,1.03,4.92.1,8s-2.43,5.27-4.5,6.59c-2.08,1.32-4.52,1.56-7.33.71-2.8-.84-4.68-2.38-5.67-4.61Zm10.15,1.63c1.04-1.04,1.97-2.94,2.8-5.69.83-2.74,1.09-4.83.79-6.28-.3-1.45-1.2-2.41-2.71-2.86-1.49-.45-2.75-.15-3.79.9-1.04,1.05-1.97,2.94-2.8,5.68-.83,2.75-1.11,4.85-.83,6.29.28,1.44,1.17,2.38,2.68,2.84,1.53.46,2.81.17,3.85-.87Zm2.26-18.19l-1.62-.78,3.45-3.89,2.93,1.89-4.76,2.78Z"/>
        <path class="cls-2" d="m235.21,570.74l4.02-19.79,4.35.88,5.58,15.11h.06s.07-1.4.07-1.4l2.45-12.05,2.62.53-4.02,19.79-3.29-.67-6.39-16.77h-.06s-.12,1.8-.12,1.8l-2.66,13.09-2.62-.53Z"/>
        <path class="cls-2" d="m280.98,577.54l-4.74-20.54,4.53.29,3.67,17.33h.09s6.28-16.68,6.28-16.68l2.7.17-7.78,19.73-4.74-.31Z"/>
        <path class="cls-2" d="m302,578.35l-.05-20.19h4.29s.05,20.18.05,20.18h-4.29Z"/>
        <path class="cls-2" d="m319.31,577.76c-.93-.3-1.63-.65-2.1-1.03-.47-.38-.71-.62-.72-.7l1.06-1.87s.22.22.64.53c.43.32.99.59,1.7.84.71.25,1.52.34,2.43.28.97-.06,1.71-.37,2.21-.92.5-.55.73-1.25.67-2.1-.03-.54-.21-1-.52-1.38-.32-.38-.7-.7-1.14-.95-.44-.25-1.06-.57-1.85-.96-1.02-.45-1.87-.9-2.54-1.33-.67-.43-1.26-1.02-1.76-1.75-.5-.74-.79-1.66-.86-2.78-.08-1.22.13-2.3.63-3.25.5-.95,1.23-1.69,2.19-2.24s2.07-.87,3.33-.95c.83-.05,1.61,0,2.36.16.75.16,1.38.35,1.9.58.52.23.79.35.79.37l-.36,2.14c-.11-.05-.37-.18-.79-.37-.42-.19-.94-.37-1.58-.54-.63-.17-1.27-.23-1.91-.19-.79.05-1.4.31-1.85.79-.45.48-.64,1.11-.59,1.89.06.87.38,1.54.97,2.02.59.48,1.49.99,2.68,1.54,1.07.49,1.93.94,2.58,1.36.65.42,1.22,1,1.72,1.74.5.75.78,1.7.85,2.86.08,1.26-.16,2.37-.73,3.32-.57.95-1.38,1.7-2.42,2.26s-2.23.88-3.55.96c-1.36.09-2.51-.02-3.44-.32Z"/>
        <path class="cls-2" d="m341.84,574.3c-1.43-1.15-2.32-2.93-2.67-5.32l-1.85-12.73,4.27-.62,1.71,11.77c.32,2.21.85,3.76,1.6,4.63s1.76,1.22,3.05,1.03c1.37-.2,2.31-.85,2.82-1.95.51-1.1.61-2.71.3-4.85l-1.71-11.77,2.61-.38,1.85,12.73c.35,2.42.05,4.37-.91,5.86-.95,1.49-2.72,2.42-5.3,2.8-2.42.35-4.34-.05-5.78-1.2Z"/>
        <path class="cls-2" d="m364.83,572.27l1.9-21.19,4.62-1.09,10.74,18.21-4.41,1.04-2.99-5.1-6.83,1.61-.49,5.92-2.54.6Zm3.18-8.57l5.65-1.33-4.87-8.62h-.06s-.72,9.95-.72,9.95Z"/>
        <path class="cls-2" d="m391.91,565.31l-6.19-19.22,4.08-1.31,5.5,17.09,7.45-2.4.68,2.13-11.53,3.71Z"/>
      </g>
      <g>
        <path class="cls-1" d="m431.06,136c0,30.65-5.07,68-14.61,106.86-.02-.03-.05-.08-.08-.12-13.83-17.89-39.42-26.95-75.99-26.95-1.75,0-3.53.02-5.35.07,10.52-39.96,16.94-79.74,16.94-122.3,0-15.92-.97-56.9-16.87-56.9-32.68,0-67.34,59.92-95.98,127.65-30.94,73.16-68.05,143.5-108.9,211.64-1.09,1.82-2.17,3.67-3.24,5.53-17.02-10.64-28.68-32.12-28.68-66.07,0-76.2,44.36-171.69,44.36-247.41,0-4.34-.97-22.18-4.82-22.18-4.82,0-22.18,6.26-37.13,29.41-24.11,42.93-9.16,70.9-30.87,70.9-12.07,0-22.67-7.72-22.67-26.52,0-55.46,39.56-112.38,93.56-112.38,32.8,0,80.07,26.05,80.07,90.2v3.38C244.42,54.49,281.08,0,333.63,0c49.2,0,97.43,45.33,97.43,136Z"/>
        <path class="cls-1" d="m534.63,450.2c0,27,3.87,45.33,3.87,59.8,0,16.39-13.02,25.08-27.02,25.08-48.7,0-56.9-50.64-56.9-99.36,0-26.03,3.85-71.38,12.54-115.74-27.98,42.92-80.54,195.8-80.54,195.8-4.84,5.31-12.54,7.23-19.79,7.23-36.72,0-50.62-32.96-55.48-70.77-1.85-14.32-2.39-29.34-2.39-43.53,0-7.23.05-15.56.27-24.56v-.02c-.31-2.32-.39-5.16-.22-8.55,3.19-67.08-1.87-74.18-1.87-74.18-4.63,2.07-9.1,4.19-13.41,6.33l-13.8,7.31c-66.29,37.13-89.5,82.7-89.5,116.09,0,11.1.97,16.89,6.26,16.89,14.03,0,52.61-34.33,86.99-97.12-.03,9.21-.32,20.87-1.02,35.6-.19,3.67-.12,6.91.19,9.83-.17,7.37-.26,15-.26,23.94,0,17.41.82,32.23,2.51,45.26.32,2.58.7,5.09,1.09,7.53-20.16,13.76-42.04,21.72-65.39,21.72-41,0-82.95-25.56-82.95-66.07,0-10.61,2.88-25.56,8.69-40.03l33.26-52.08,11.86-12.22c23.61-22.59,52.05-40.13,82.59-53.34v-.1l15.46-6.18c11.25-4.24,22.74-7.94,34.3-11.12,5.99-.48,11.52-.71,16.61-.71,1.78,0,3.5.03,5.16.08,2.68.08,5.21.24,7.62.44h.02c3.61.32,6.94.78,10.01,1.34.02,0,.02.02.02.02,3.07.56,5.87,1.26,8.43,2.04,3.97,1.2,7.35,2.65,10.25,4.24,1.37.76,2.65,1.54,3.82,2.38l.02.02c1.15.81,2.21,1.66,3.17,2.51,0,.02.02.03.03.03.95.87,1.82,1.75,2.6,2.65.31.34.58.68.85,1.02.73.9,1.37,1.83,1.93,2.75.58.93,1.07,1.85,1.49,2.77h.02c.42.92.78,1.82,1.1,2.72v.02c.87,2.53,1.29,4.94,1.48,7.06.37,4.67-.47,7.93-.47,7.93,0,0-.7,6.04-1.71,15.44-2.22,20.87-5.97,58.34-6.97,82.95,20.74-54.98,47.26-122.98,90.67-122.98,36.66,0,62.7,26.52,62.7,73.79,0,29.41-8.21,61.74-8.21,108.03Z"/>
      </g>
      <path class="cls-2" d="m498.64,230.65h0c0-23.93-19.4-43.32-43.32-43.32h0c23.93,0,43.32-19.4,43.32-43.32h0c0,23.93,19.4,43.32,43.32,43.32h0c-23.93,0-43.32,19.4-43.32,43.32Z"/>
    </g>
  </g>
</svg>