<?xml version="1.0" encoding="UTF-8"?>
<svg id="Capa_2" data-name="Capa 2" xmlns="http://www.w3.org/2000/svg" viewBox="0 0 733.04 764.12">
  <defs>
    <style>
      .cls-1 {
        fill: #5f184b;
      }
    </style>
  </defs>
  <g id="Capa_1-2" data-name="Capa 1">
    <g>
      <path class="cls-1" d="m724.17,56.77l-12.87-3.02c-5.86-1.37-10-4.05-12.41-8.04-2.41-3.98-2.88-9.08-1.42-15.3,1.44-6.14,4.09-10.44,7.94-12.92,3.86-2.48,8.76-3.02,14.7-1.63l12.93,3.03-8.87,37.87Zm-5.09-36.77c-2.25-.53-4.16-.47-5.72.17s-2.9,1.94-4.02,3.91c-1.12,1.97-2.1,4.78-2.96,8.43-.85,3.65-1.22,6.64-1.09,8.96.13,2.33.76,4.13,1.89,5.42,1.13,1.29,2.83,2.2,5.08,2.73l4.83,1.13,6.93-29.59-4.95-1.16Z"/>
      <path class="cls-1" d="m681.73,8.12l-6.12,38.4-8.15-1.3,6.13-38.4,8.15,1.3Z"/>
      <path class="cls-1" d="m648.48,3.91c1.68.86,2.91,1.73,3.69,2.6.78.88,1.16,1.39,1.14,1.55l-2.59,3.24c0-.08-.34-.48-1.06-1.21-.71-.73-1.71-1.43-2.98-2.12s-2.79-1.11-4.54-1.27c-1.87-.18-3.36.18-4.49,1.08-1.13.89-1.77,2.15-1.92,3.78-.1,1.03.09,1.96.58,2.79.48.83,1.11,1.55,1.87,2.16.76.61,1.84,1.41,3.23,2.38,1.81,1.17,3.29,2.28,4.43,3.31,1.14,1.03,2.08,2.32,2.82,3.87.73,1.55,1,3.4.79,5.54-.22,2.34-.95,4.34-2.19,5.98-1.24,1.64-2.85,2.84-4.85,3.6-2,.75-4.2,1.01-6.63.78-1.59-.15-3.07-.49-4.44-1.02-1.37-.53-2.52-1.09-3.45-1.68-.93-.59-1.39-.9-1.38-.94l1.34-3.96c.19.14.65.45,1.38.94.74.49,1.68.99,2.83,1.5,1.15.51,2.35.82,3.58.94,1.51.14,2.76-.17,3.75-.94,1-.77,1.56-1.9,1.71-3.41.16-1.67-.25-3.05-1.23-4.14-.98-1.1-2.52-2.34-4.63-3.75-1.88-1.26-3.38-2.39-4.49-3.37-1.11-.99-2.02-2.26-2.73-3.83s-.96-3.47-.75-5.69c.23-2.42,1.04-4.45,2.41-6.08,1.38-1.63,3.14-2.82,5.3-3.55,2.15-.74,4.5-.98,7.04-.74,2.62.25,4.77.81,6.45,1.67Z"/>
      <path class="cls-1" d="m607.85.49l-.78,38.88-23.33-.47.09-4.31,15.08.3.26-12.8-13.28-.27.08-4.19,13.28.27.27-13.28-15.91-.32.09-4.31,24.17.49Z"/>
      <path class="cls-1" d="m562.46.38l2.44,38.81-8.54.54-17.96-25.31h-.12s.59,2.67.59,2.67l1.48,23.65-5.14.32-2.44-38.81,6.45-.41,20.28,27.98h.12s-.7-3.44-.7-3.44l-1.61-25.68,5.14-.32Zm-14.9,44.82c.71.19,1.62.52,2.73.97.86.38,1.62.68,2.27.88.65.2,1.34.28,2.05.23.64-.04,1.2-.28,1.69-.71.49-.43.86-.87,1.12-1.33.25-.46.41-.75.48-.87l2.29,2.01c0,.16-.25.71-.79,1.67-.54.95-1.33,1.86-2.38,2.73s-2.32,1.34-3.84,1.44c-1.07.07-2.01-.01-2.8-.24-.79-.23-1.68-.57-2.67-1.03-.86-.35-1.56-.6-2.09-.77-.53-.17-1.09-.23-1.69-.19-.64.04-1.17.21-1.59.52-.42.31-.73.62-.93.96-.2.33-.32.54-.35.62l-2.28-1.96c-.01-.16.2-.65.63-1.48s1.12-1.62,2.07-2.38,2.18-1.19,3.7-1.28c.88-.05,1.67.02,2.38.21Z"/>
      <path class="cls-1" d="m508.1,9.72c3.56,3.06,5.82,7.66,6.78,13.81.95,6.15.2,11.23-2.27,15.25s-6.48,6.45-12.03,7.32c-5.6.87-10.2-.24-13.81-3.34-3.61-3.09-5.89-7.69-6.83-13.8-.95-6.11-.17-11.17,2.33-15.2,2.5-4.02,6.56-6.47,12.15-7.33,5.56-.86,10.12.24,13.68,3.29Zm-18.99,5.61c-.94,2.67-.98,6.74-.13,12.22.84,5.44,2.13,9.3,3.85,11.57s4.09,3.18,7.08,2.71c2.96-.46,4.9-2.03,5.84-4.72.94-2.69.98-6.75.14-12.19-.85-5.48-2.12-9.35-3.8-11.61-1.68-2.26-4.02-3.16-7.02-2.7-3.04.47-5.02,2.04-5.96,4.71Z"/>
      <path class="cls-1" d="m428.77,23.54c2.66,1.34,4.49,3.67,5.5,6.99.74,2.44.63,4.63-.32,6.57-.95,1.94-2.39,3.59-4.31,4.96,3.85.75,6.37,3.05,7.53,6.91.93,3.05.65,5.76-.82,8.13-1.47,2.36-3.85,4.04-7.13,5.04-1.15.35-2.32.56-3.53.63-1.21.07-2.24.08-3.09.03-.85-.05-1.38-.09-1.6-.11l-.5-3.91c.18.03.6.09,1.27.18.67.09,1.45.13,2.32.14.88,0,1.68-.1,2.4-.32,1.57-.47,2.59-1.33,3.07-2.56.48-1.23.38-2.99-.32-5.28-1.23-4.05-2.91-5.83-5.06-5.34l-6.41,1.95-1.48,8.51-2.98.9-2.24-7.39-6.36,1.93-1.15-3.78,6.35-1.93-2.4-7.9c-.54-1.79-1.04-3.1-1.5-3.92-.46-.82-.96-1.31-1.51-1.48-.55-.17-1.25-.12-2.09.13-.76.23-1.45.57-2.07,1-.62.44-.92.67-.91.71l-1.24-3.25s.16-.24.51-.59.92-.77,1.72-1.24c.8-.47,1.84-.9,3.14-1.3,3.13-.95,5.59-.67,7.38.83,1.46-2.48,3.92-4.25,7.39-5.31,4.28-1.3,7.74-1.28,10.4.07Zm-13.72,6c-.78.78-1.34,1.59-1.67,2.44.42.83.83,1.91,1.24,3.25l2.54,8.36,6.41-1.95c1.36-.46,2.32-1.39,2.87-2.81.55-1.42.46-3.33-.27-5.73-.79-2.6-1.78-4.3-2.98-5.1-1.2-.8-2.85-.88-4.95-.25-1.33.41-2.4,1-3.18,1.78Z"/>
      <path class="cls-1" d="m352.56,53.05c4.27,1.93,7.68,5.68,10.24,11.26,1.7,3.7,2.55,7.23,2.57,10.61.01,3.37-.84,6.38-2.57,9.02-1.73,2.64-4.26,4.72-7.6,6.25-1.67.77-3.4,1.31-5.21,1.63-1.8.32-3.41.51-4.81.56s-2.11.06-2.13.02l-1.06-4.32c.32.03,1.07.03,2.24,0,1.17-.03,2.53-.16,4.07-.39,1.54-.23,2.91-.61,4.11-1.16,2.03-.93,3.47-2.14,4.32-3.63.85-1.49,1.12-3.41.81-5.77-.31-2.36-1.27-5.28-2.87-8.76-2.35-5.11-4.76-8.41-7.25-9.91-2.48-1.49-5.29-1.52-8.4-.09-1.74.8-3.1,1.87-4.08,3.22-.98,1.35-1.68,2.66-2.08,3.92s-.59,1.95-.54,2.06l-3.59-1.51c-.08-.18.1-1.05.54-2.62.45-1.57,1.37-3.25,2.78-5.06s3.45-3.33,6.13-4.56c5.33-2.45,10.12-2.71,14.39-.78Z"/>
      <path class="cls-1" d="m309.29,74.18c4.42,1.59,8.17,5.09,11.25,10.49s4.19,10.42,3.32,15.05c-.87,4.63-3.75,8.34-8.64,11.12-4.92,2.81-9.62,3.41-14.09,1.8-4.47-1.6-8.24-5.09-11.31-10.46-3.06-5.37-4.14-10.38-3.24-15.03.91-4.65,3.82-8.38,8.74-11.18,4.89-2.79,9.54-3.39,13.96-1.8Zm-15.74,12.01c.08,2.83,1.49,6.65,4.23,11.46,2.73,4.78,5.3,7.93,7.73,9.44s4.95,1.51,7.58.01c2.6-1.48,3.86-3.65,3.77-6.49-.08-2.84-1.49-6.66-4.22-11.44-2.75-4.82-5.31-7.98-7.69-9.49-2.38-1.51-4.88-1.52-7.52-.02-2.67,1.52-3.96,3.7-3.89,6.52Z"/>
      <path class="cls-1" d="m262.21,96.69l22.23,31.91-8.13,5.81-25.53-16.98-.19.14,7.96,29.54-7.54,5.39-22.96-31.39,6.57-4.7,17.46,23.7.15-.11-8.32-30.24,5.01-3.58,25.93,17.64.15-.1-16.98-24.05,4.19-2.99Z"/>
      <path class="cls-1" d="m209.55,140.57c3.52.36,6.83,2.29,9.9,5.8l16.34,18.62-6.25,5.49-15.11-17.22c-2.84-3.24-5.32-5.17-7.44-5.81-2.12-.63-4.13-.12-6.01,1.54-2.01,1.76-2.85,3.8-2.52,6.11.33,2.31,1.86,5.02,4.6,8.14l15.11,17.22-3.82,3.35-16.34-18.62c-3.1-3.54-4.67-7.01-4.68-10.42-.02-3.41,1.86-6.77,5.64-10.08,3.54-3.11,7.07-4.48,10.59-4.12Z"/>
      <path class="cls-1" d="m172.14,170.41l28.13,26.85-5.91,6.19-30.36-6.4-.08.09,2.24,1.56,17.14,16.36-3.55,3.72-28.13-26.85,4.46-4.67,33.89,6.79.08-.09-2.84-2.05-18.61-17.76,3.55-3.72Z"/>
      <path class="cls-1" d="m136.66,209.32l29.98,24.78-5.26,6.36-29.97-24.78,5.26-6.36Z"/>
      <path class="cls-1" d="m119.69,238.09c4.66-.43,9.48,1.14,14.47,4.73,3.3,2.38,5.79,5.02,7.47,7.95,1.68,2.93,2.42,5.96,2.22,9.11-.2,3.15-1.37,6.21-3.51,9.19-1.07,1.49-2.31,2.82-3.72,4-1.41,1.17-2.71,2.13-3.9,2.87-1.19.74-1.81,1.1-1.84,1.07l-3.06-3.23c.29-.13.94-.5,1.94-1.11,1-.61,2.12-1.39,3.35-2.35,1.23-.96,2.23-1.97,3-3.04,1.3-1.81,1.96-3.58,1.96-5.29,0-1.72-.71-3.52-2.15-5.41-1.44-1.89-3.71-3.96-6.82-6.19-4.57-3.28-8.3-4.96-11.2-5.03-2.9-.07-5.35,1.29-7.35,4.07-1.12,1.55-1.77,3.16-1.96,4.82-.19,1.66-.14,3.14.13,4.44.27,1.3.45,1.98.55,2.05l-3.87.46c-.16-.12-.44-.97-.82-2.54-.39-1.58-.42-3.5-.09-5.77.33-2.27,1.36-4.6,3.08-7,3.42-4.76,7.46-7.36,12.12-7.79Z"/>
      <path class="cls-1" d="m91.42,270.6l26.75,31.05-4.7,7.86-39.58-9.58,4.48-7.5,11.07,2.71,6.94-11.61-7.54-8.62,2.58-4.31Zm7.58,15.89l-5.74,9.6,18.45,4.82.06-.1-12.77-14.32Z"/>
      <path class="cls-1" d="m68.71,319.71c4.52-1.2,9.54-.44,15.05,2.27,3.65,1.8,6.55,4,8.69,6.61,2.14,2.61,3.37,5.48,3.7,8.62.32,3.14-.32,6.35-1.94,9.65-.81,1.65-1.81,3.16-3.01,4.56-1.2,1.39-2.32,2.55-3.38,3.47-1.05.92-1.6,1.38-1.64,1.36l-3.55-2.68c.27-.18.84-.65,1.73-1.42.89-.76,1.86-1.72,2.91-2.87,1.05-1.15,1.87-2.31,2.45-3.49.99-2,1.34-3.85,1.06-5.55-.28-1.69-1.28-3.35-3.02-4.98-1.73-1.63-4.32-3.29-7.75-4.98-5.05-2.48-9-3.52-11.87-3.11-2.87.41-5.06,2.16-6.58,5.23-.84,1.72-1.22,3.41-1.13,5.08.09,1.67.38,3.12.86,4.36.48,1.24.77,1.88.88,1.93l-3.74,1.09c-.18-.09-.59-.88-1.23-2.37-.64-1.5-.99-3.39-1.04-5.68-.05-2.29.58-4.76,1.88-7.41,2.59-5.26,6.14-8.49,10.67-9.69Z"/>
      <path class="cls-1" d="m45.24,359.35l35.99,14.75-3.13,7.64-35.99-14.75,3.13-7.64Z"/>
      <path class="cls-1" d="m37.57,391.97c4.34-1.79,9.47-1.72,15.38.21,5.91,1.93,10.1,4.91,12.57,8.92,2.46,4.02,2.82,8.7,1.08,14.04-1.76,5.38-4.84,8.98-9.23,10.8-4.39,1.82-9.53,1.76-15.4-.16s-10.04-4.91-12.49-8.96c-2.45-4.05-2.8-8.77-1.04-14.16,1.75-5.35,4.79-8.91,9.13-10.71Zm-3.59,19.47c1.95,2.04,5.57,3.93,10.84,5.65,5.23,1.71,9.25,2.31,12.06,1.8,2.81-.51,4.69-2.2,5.63-5.08.93-2.84.41-5.29-1.57-7.34-1.97-2.05-5.58-3.93-10.81-5.64-5.27-1.72-9.29-2.35-12.07-1.87-2.78.48-4.64,2.16-5.58,5.04-.95,2.92-.46,5.4,1.5,7.45Zm34.92,5.15l1.57-3.07,7.34,6.81-3.77,5.57-5.14-9.3Z"/>
      <path class="cls-1" d="m18.07,440.04l37.92,8.62-1.9,8.34-29.35,10.08-.03.12,2.72.19,23.1,5.25-1.14,5.02-37.92-8.63,1.43-6.3,32.57-11.55.03-.12-3.49-.3-25.09-5.71,1.14-5.02Z"/>
      <path class="cls-1" d="m2.94,527.78l39.76-8.21-.77,8.7-33.53,6.3-.02.18,31.84,12.83-.46,5.19-37.64-15.87.8-9.12Z"/>
      <path class="cls-1" d="m.44,568.17l38.88.81-.17,8.25-38.88-.81.17-8.25Z"/>
      <path class="cls-1" d="m.8,601.55c.62-1.78,1.32-3.12,2.08-4.01.76-.89,1.22-1.34,1.38-1.34l3.56,2.13c-.08,0-.43.41-1.06,1.21-.63.8-1.19,1.88-1.69,3.24-.5,1.36-.72,2.91-.65,4.67.08,1.87.63,3.31,1.67,4.3,1.04,1,2.38,1.46,4.01,1.39,1.04-.04,1.93-.36,2.69-.95s1.38-1.3,1.89-2.14c.5-.84,1.14-2.01,1.92-3.52.92-1.95,1.81-3.57,2.67-4.84.87-1.27,2.02-2.38,3.46-3.32,1.44-.94,3.23-1.45,5.39-1.54,2.35-.1,4.43.36,6.22,1.36,1.8,1,3.2,2.44,4.22,4.32,1.01,1.88,1.57,4.03,1.67,6.46.07,1.59-.07,3.11-.41,4.54-.34,1.43-.74,2.64-1.2,3.64s-.71,1.5-.75,1.5l-4.1-.79c.11-.21.36-.7.75-1.5.39-.79.75-1.8,1.1-3.01.35-1.21.5-2.44.45-3.67-.06-1.51-.54-2.71-1.44-3.59-.9-.88-2.1-1.29-3.61-1.23-1.67.07-2.99.66-3.94,1.78s-1.98,2.82-3.08,5.1c-.99,2.04-1.91,3.67-2.73,4.9-.83,1.23-1.97,2.31-3.43,3.23-1.46.92-3.31,1.42-5.54,1.52-2.43.1-4.55-.42-6.35-1.56-1.8-1.14-3.22-2.73-4.24-4.77-1.02-2.03-1.59-4.33-1.69-6.88-.11-2.63.15-4.84.77-6.62Z"/>
      <path class="cls-1" d="m6.45,645.1c2.28-2.71,5.74-4.35,10.37-4.91l24.59-2.99,1,8.26-22.75,2.77c-4.28.52-7.27,1.48-8.99,2.87-1.72,1.39-2.43,3.34-2.12,5.83.32,2.65,1.53,4.49,3.63,5.53,2.09,1.03,5.2,1.3,9.32.79l22.75-2.77.61,5.05-24.59,2.99c-4.67.57-8.42-.1-11.24-2.01-2.82-1.91-4.54-5.35-5.15-10.34-.57-4.67.29-8.36,2.57-11.07Z"/>
      <path class="cls-1" d="m9.31,689.37l40.72,4.61,1.89,8.96-35.56,19.86-1.8-8.55,9.96-5.53-2.79-13.23-11.38-1.21-1.04-4.92Zm16.36,6.52l2.31,10.95,16.81-8.99-.02-.12-19.1-1.84Z"/>
      <path class="cls-1" d="m21.46,741.75l37.29-11.05,2.35,7.92-33.16,9.82,4.28,14.46-4.13,1.22-6.63-22.37Z"/>
    </g>
  </g>
</svg>